<svg width="33" height="32" viewBox="0 0 33 32" fill="none" xmlns="http://www.w3.org/2000/svg">
<path fill-rule="evenodd" clip-rule="evenodd" d="M11.3358 7.00002H11.75H27.75H28.75V8.00002V24V25H27.75H11.75H11.3358L11.0429 24.7071L3.04286 16.7071L2.33575 16L3.04286 15.2929L11.0429 7.29291L11.3358 7.00002ZM12.1642 9.00002L5.16418 16L12.1642 23H26.75V9.00002H12.1642ZM15.75 11.5858L16.4571 12.2929L18.75 14.5858L21.0429 12.2929L21.75 11.5858L23.1642 13L22.4571 13.7071L20.1642 16L22.4571 18.2929L23.1642 19L21.75 20.4142L21.0429 19.7071L18.75 17.4142L16.4571 19.7071L15.75 20.4142L14.3358 19L15.0429 18.2929L17.3358 16L15.0429 13.7071L14.3358 13L15.75 11.5858Z" fill="white"/>
</svg>
