<svg width="33" height="32" viewBox="0 0 33 32" fill="none" xmlns="http://www.w3.org/2000/svg">
<path fill-rule="evenodd" clip-rule="evenodd" d="M10.8358 7.00001H11.25H27.25H28.25V8.00001V24V25H27.25H11.25H10.8358L10.5429 24.7071L2.54286 16.7071L1.83575 16L2.54286 15.2929L10.5429 7.2929L10.8358 7.00001ZM11.6642 9.00001L4.66418 16L11.6642 23H26.25V9.00001H11.6642ZM15.25 11.5858L15.9571 12.2929L18.25 14.5858L20.5429 12.2929L21.25 11.5858L22.6642 13L21.9571 13.7071L19.6642 16L21.9571 18.2929L22.6642 19L21.25 20.4142L20.5429 19.7071L18.25 17.4142L15.9571 19.7071L15.25 20.4142L13.8358 19L14.5429 18.2929L16.8358 16L14.5429 13.7071L13.8358 13L15.25 11.5858Z" fill="white"/>
</svg>
